<svg xmlns="http://www.w3.org/2000/svg" width="28" height="30" viewBox="0 0 400 400">
  <path fill="#1DA1F2" d="M200 0C89.543 0 0 89.543 0 200c0 85.439 54.135 158.217 129.607 185.132 9.525 1.771 12.993-4.134 12.993-9.166 0-4.543-.174-15.922-.256-31.497C87.6 342.935 50 308.792 50 265.731c0-25.995 7.868-50.056 21.495-70.199-7.539.335-14.664 2.322-20.924 5.756-.005-.191-.005-.382-.005-.573 0-73.509 53.096-133.084 123.93-133.084 36.535 0 69.268 15.41 92.423 39.941 28.68-5.615 55.625-16.084 79.648-30.438-9.376 29.379-29.379 53.939-55.343 69.392 25.361-3.007 49.558-9.736 72.026-19.642-8.493 25.499-24.003 46.927-45.12 64.285a198.083 198.083 0 0 1-49.674 32.141c-9.07 3.712-18.702 6.665-28.631 8.85 10.242-6.45 19.971-14.718 28.547-24.155-6.679-1.236-13.013-3.761-18.88-7.571v.51c0 24.799 17.62 45.591 41.037 50.34-4.286 1.167-8.797 1.786-13.449 1.786-3.298 0-6.496-.323-9.616-.927 6.515 20.396 25.417 35.183 47.809 35.62-17.518 13.752-39.557 22.002-63.575 22.002-4.138 0-8.236-.243-12.271-.722 22.664 14.531 49.501 22.985 78.488 22.985 94.182 0 145.598-78.093 145.598-145.598 0-2.217-.051-4.43-.152-6.636C373.662 75.63 388.129 39.663 388.129 1.408c0-5.709-.229-11.365-.655-16.964C398.838 6.537 405 11.275 405 17.235c0 30.665-15.967 57.713-40.223 73.532C363.417 91.968 384 114.739 384 140.953z"/>
</svg>
